#!OML:ASF H:\Terrain\Patient Classification 1\Takeo\Monday\TakeoMonday.ASF
:FULLY-SPECIFIED
:DEGREES
1902
root 10.5611 17.7077 0.291472 -8.05896 -43.0139 1.63444
lowerback -0.296522 -9.82705 -9.18089
upperback -3.42974 -13.2199 1.44185
thorax -1.05572 -6.44651 6.29516
lowerneck -11.6557 -11.9269 -7.96333
upperneck 4.54708 -15.5395 8.91411
head 4.54772 -7.38341 2.69825
rclavicle 1.13307e-014 -4.05521e-014
rhumerus 52.4131 3.38961 -65.1206
rradius 31.7321
rwrist -50.4036
rhand -30.7714 1.73606
rfingers 7.12502
rthumb -4.06235 -28.205
lclavicle 1.13307e-014 -4.05521e-014
lhumerus 76.902 -48.2059 32.9045
lradius 76.6308
lwrist 40.6303
lhand -33.636 4.84852
lfingers 7.12502
lthumb -6.82818 34.7184
rfemur -1.51611 18.4746 16.7047
rtibia 21.7493
rfoot -10.5013 2.63668
rtoes -6.33486
lfemur 12.4581 13.2446 -25.0071
ltibia 12.6703
lfoot -27.5045 35.169
ltoes 13.8277
1903
root 10.5575 17.7046 0.287442 -7.84306 -42.9831 1.32819
lowerback -0.244362 -9.78022 -9.11336
upperback -3.45015 -13.1624 1.53033
thorax -1.1091 -6.41573 6.36727
lowerneck -11.4867 -12.1212 -8.10288
upperneck 4.72601 -15.8246 9.05518
head 4.62213 -7.5201 2.73127
rclavicle 4.83047e-014 1.03368e-014
rhumerus 52.0911 3.33284 -64.9228
rradius 31.7236
rwrist -50.3286
rhand -30.5538 1.39981
rfingers 7.12502
rthumb -3.85223 -28.5451
lclavicle 4.83047e-014 1.03368e-014
lhumerus 76.9247 -48.7839 32.3192
lradius 78.4347
lwrist 41.1233
lhand -33.3629 5.31441
lfingers 7.12502
lthumb -6.5646 35.1927
rfemur -1.46623 18.4834 16.9737
rtibia 21.6742
rfoot -10.5792 2.57474
rtoes -6.0236
lfemur 12.4225 13.4376 -24.7158
ltibia 12.7472
lfoot -26.2403 35.5864
ltoes 11.8328
1904
root 10.5607 17.709 0.290378 -7.74241 -42.9577 1.20673
lowerback -0.23043 -9.69903 -9.01465
upperback -3.44049 -13.0542 1.52734
thorax -1.14636 -6.36176 6.32491
lowerneck -11.4735 -12.4495 -8.39698
upperneck 4.92451 -16.2885 9.44868
head 4.77847 -7.72889 2.82878
rclavicle 1.86858e-014 9.54166e-015
rhumerus 51.7245 3.28084 -64.5196
rradius 31.7773
rwrist -50.3957
rhand -30.6655 1.63148
rfingers 7.12502
rthumb -3.96017 -28.3115
lclavicle 1.86858e-014 9.54166e-015
lhumerus 77.1082 -49.4379 31.6952
lradius 80.1103
lwrist 41.705
lhand -33.224 5.5579
lfingers 7.12502
lthumb -6.43044 35.4403
rfemur -1.44496 18.3747 17.0453
rtibia 21.5985
rfoot -10.5646 2.63403
rtoes -5.2636
lfemur 12.3849 13.3241 -24.6565
ltibia 12.8308
lfoot -26.2539 35.6944
ltoes 11.3281
1905
root 10.5646 17.7135 0.293202 -7.81383 -42.9146 1.33643
lowerback -0.167223 -9.65742 -9.14424
upperback -3.47279 -13.0092 1.48037
thorax -1.20706 -6.33272 6.36247
lowerneck -11.4493 -12.6639 -8.5735
upperneck 5.24842 -16.6261 9.78604
head 4.94974 -7.87468 2.90348
rclavicle -2.46493e-014 1.82882e-014
rhumerus 51.4001 3.31023 -64.2631
rradius 31.6826
rwrist -50.3033
rhand -30.7744 2.26005
rfingers 7.12502
rthumb -4.06524 -27.6809
lclavicle -2.46493e-014 1.82882e-014
lhumerus 77.0025 -50.1998 31.3638
lradius 81.6653
lwrist 41.9795
lhand -33.2314 5.62964
lfingers 7.12502
lthumb -6.43762 35.5118
rfemur -1.41905 18.2764 16.9106
rtibia 21.5224
rfoot -10.4779 2.67113
rtoes -4.81929
lfemur 12.3148 12.9549 -24.8344
ltibia 12.8895
lfoot -27.563 35.3412
ltoes 13.2702
1906
root 10.5636 17.7151 0.293522 -7.89222 -42.7984 1.50565
lowerback -0.122687 -9.63242 -9.37239
upperback -3.5185 -12.9867 1.4527
thorax -1.24316 -6.31377 6.46524
lowerneck -11.3254 -12.6946 -8.70119
upperneck 5.5329 -16.7174 10.0256
head 5.05958 -7.90844 2.97886
rclavicle 1.45113e-014 -3.10104e-014
rhumerus 51.1513 3.2574 -64.1299
rradius 31.5514
rwrist -50.397
rhand -31.0693 2.67766
rfingers 7.12502
rthumb -4.35007 -27.2577
lclavicle 1.45113e-014 -3.10104e-014
lhumerus 76.887 -51.0058 31.0622
lradius 83.3606
lwrist 42.0749
lhand -33.1622 5.82428
lfingers 7.12502
lthumb -6.37083 35.7085
rfemur -1.40775 18.1928 16.7511
rtibia 21.4651
rfoot -10.4873 2.63346
rtoes -5.48647
lfemur 12.252 12.7476 -24.9905
ltibia 12.8948
lfoot -28.2654 35.0098
ltoes 14.2495
1907
root 10.5653 17.7143 0.293891 -7.87391 -42.6471 1.60476
lowerback -0.123967 -9.58576 -9.47726
upperback -3.54859 -12.9279 1.43833
thorax -1.26631 -6.28021 6.51161
lowerneck -11.2379 -12.6929 -8.82765
upperneck 5.75935 -16.7484 10.1985
head 5.14567 -7.91597 3.04163
rclavicle -4.37326e-015 -1.19271e-014
rhumerus 50.862 3.06422 -63.9853
rradius 31.5225
rwrist -50.6309
rhand -31.4467 2.83011
rfingers 7.12502
rthumb -4.7145 -27.0974
lclavicle -4.37326e-015 -1.19271e-014
lhumerus 76.993 -51.8621 30.7092
lradius 85.0488
lwrist 42.288
lhand -32.9965 5.93718
lfingers 7.12502
lthumb -6.21082 35.8261
rfemur -1.47801 18.1198 16.6217
rtibia 21.4517
rfoot -10.5635 2.56555
rtoes -6.93446
lfemur 12.1982 12.7441 -25.0807
ltibia 12.8313
lfoot -28.195 34.8695
ltoes 14.1644
1908
root 10.5695 17.7186 0.293985 -7.75312 -42.5614 1.54425
lowerback -0.118338 -9.52168 -9.44716
upperback -3.55194 -12.843 1.44719
thorax -1.292 -6.2369 6.51352
lowerneck -11.205 -12.7789 -8.84863
upperneck 5.97184 -16.8966 10.2686
head 5.22846 -7.98191 3.04266
rclavicle 1.34975e-013 3.26007e-014
rhumerus 50.5383 2.88777 -63.8356
rradius 31.5653
rwrist -50.5992
rhand -31.5568 2.40526
rfingers 7.12502
rthumb -4.82075 -27.5199
lclavicle 1.34975e-013 3.26007e-014
lhumerus 77.1434 -52.6729 30.3142
lradius 86.6541
lwrist 42.5984
lhand -32.728 5.9254
lfingers 7.12502
lthumb -5.95164 35.8218
rfemur -1.58296 18.1633 16.6343
rtibia 21.4673
rfoot -10.543 2.50288
rtoes -7.57104
lfemur 12.1668 12.7701 -25.0692
ltibia 12.7406
lfoot -27.9377 34.8849
ltoes 14.2347
1909
root 10.5701 17.7216 0.295993 -7.75688 -42.5474 1.47974
lowerback -0.0324437 -9.43249 -9.43948
upperback -3.53146 -12.7326 1.42086
thorax -1.34491 -6.17954 6.50546
lowerneck -11.1525 -12.9357 -8.73603
upperneck 6.2586 -17.15 10.1732
head 5.31366 -8.10411 2.96266
rclavicle 8.68689e-014 2.38542e-014
rhumerus 50.0645 2.86397 -63.511
rradius 31.8505
rwrist -50.7816
rhand -31.5382 2.04417
rfingers 7.12502
rthumb -4.80279 -27.8814
lclavicle 8.68689e-014 2.38542e-014
lhumerus 77.3069 -53.4095 29.7885
lradius 88.3722
lwrist 42.9383
lhand -32.5088 6.42366
lfingers 7.12502
lthumb -5.73996 36.3259
rfemur -1.53776 18.1839 16.6998
rtibia 21.4802
rfoot -10.4408 2.48088
rtoes -6.64231
lfemur 12.2552 12.8211 -25.0248
ltibia 12.6928
lfoot -27.5988 35.0332
ltoes 13.7774
1910
root 10.5688 17.7179 0.297936 -7.84572 -42.5239 1.49701
lowerback 0.123772 -9.44833 -9.55189
upperback -3.57264 -12.7746 1.41588
thorax -1.44587 -6.19146 6.58842
lowerneck -11.0498 -13.0588 -8.83358
upperneck 6.68484 -17.3648 10.2218
head 5.46265 -8.20323 2.95693
rclavicle -8.01102e-014 -1.74931e-014
rhumerus 49.4957 3.22747 -63.12
rradius 32.3917
rwrist -51.254
rhand -31.7745 2.40452
rfingers 7.12502
rthumb -5.03099 -27.5158
lclavicle -8.01102e-014 -1.74931e-014
lhumerus 77.0166 -54.0686 29.4296
lradius 90.2003
lwrist 43.2565
lhand -32.3912 7.30935
lfingers 7.12502
lthumb -5.62647 37.2147
rfemur -1.42064 18.1219 16.7023
rtibia 21.4717
rfoot -10.3697 2.45425
rtoes -5.47405
lfemur 12.3503 12.8344 -25.0236
ltibia 12.6885
lfoot -27.3129 35.1623
ltoes 13.3069
1911
root 10.5676 17.7196 0.297077 -7.87605 -42.4687 1.49634
lowerback 0.205155 -9.46181 -9.66915
upperback -3.56706 -12.8032 1.41393
thorax -1.4567 -6.20285 6.65831
lowerneck -10.8602 -13.1717 -9.26174
upperneck 6.93952 -17.5827 10.8001
head 5.62643 -8.28939 3.16135
rclavicle -7.95139e-014 -2.38542e-014
rhumerus 49.1118 3.28826 -63.1214
rradius 32.5945
rwrist -51.0977
rhand -32.0207 2.63506
rfingers 7.12502
rthumb -5.26874 -27.2794
lclavicle -7.95139e-014 -2.38542e-014
lhumerus 76.94 -54.6897 28.8278
lradius 91.997
lwrist 43.2817
lhand -32.309 8.0041
lfingers 7.12502
lthumb -5.54711 37.9115
rfemur -1.38428 18.1139 16.7254
rtibia 21.5003
rfoot -10.3812 2.3574
rtoes -5.38259
lfemur 12.4136 12.7805 -25.0113
ltibia 12.6049
lfoot -27.0785 35.2951
ltoes 13.1188
1912
root 10.5669 17.7201 0.295539 -7.77709 -42.4174 1.3097
lowerback 0.237655 -9.39199 -9.6079
upperback -3.496 -12.7087 1.40881
thorax -1.43011 -6.16049 6.62694
lowerneck -10.7448 -13.2428 -9.47629
upperneck 7.15932 -17.754 11.261
head 5.75874 -8.35271 3.30493
rclavicle 2.27608e-014 -7.95139e-016
rhumerus 48.8901 2.85725 -63.5049
rradius 32.4662
rwrist -50.5072
rhand -31.8943 2.49957
rfingers 7.12502
rthumb -5.14665 -27.4179
lclavicle 2.27608e-014 -7.95139e-016
lhumerus 77.309 -55.4198 28.0649
lradius 93.6325
lwrist 43.2162
lhand -32.0377 8.33063
lfingers 7.12502
lthumb -5.28514 38.2447
rfemur -1.35574 18.182 16.9252
rtibia 21.534
rfoot -10.4164 2.14311
rtoes -5.68047
lfemur 12.4302 12.6624 -24.8517
ltibia 12.5656
lfoot -27.0215 35.3649
ltoes 12.9866
1913
root 10.5663 17.7123 0.296983 -7.79277 -42.2735 1.32362
lowerback 0.286257 -9.42258 -9.71771
upperback -3.49485 -12.7563 1.42985
thorax -1.42036 -6.18265 6.70919
lowerneck -10.7709 -13.2425 -9.37377
upperneck 7.54578 -17.7962 11.1409
head 5.86734 -8.3682 3.23764
rclavicle -1.60022e-014 1.35174e-014
rhumerus 48.7366 2.80343 -63.6943
rradius 32.431
rwrist -50.3469
rhand -31.5215 2.50739
rfingers 7.12502
rthumb -4.78671 -27.4185
lclavicle -1.60022e-014 1.35174e-014
lhumerus 77.0863 -56.258 28.1323
lradius 95.0188
lwrist 43.3963
lhand -31.0979 8.37268
lfingers 7.12502
lthumb -4.37771 38.3074
rfemur -1.28984 18.143 16.922
rtibia 21.5247
rfoot -10.477 2.02425
rtoes -5.94624
lfemur 12.3868 12.4938 -24.8851
ltibia 12.6199
lfoot -26.9594 35.3692
ltoes 13.1984
1914
root 10.5647 17.7077 0.296874 -7.80846 -42.1389 1.4001
lowerback 0.305886 -9.46125 -9.89258
upperback -3.50424 -12.8136 1.44372
thorax -1.39221 -6.20907 6.81211
lowerneck -10.8298 -13.2424 -9.21715
upperneck 7.98014 -17.8384 10.944
head 5.98402 -8.38432 3.13687
rclavicle -9.42239e-014 -1.74931e-014
rhumerus 48.4857 2.94433 -63.5919
rradius 32.5308
rwrist -50.5419
rhand -31.1271 2.25423
rfingers 7.12502
rthumb -4.40587 -27.6799
lclavicle -9.42239e-014 -1.74931e-014
lhumerus 76.7687 -57.1132 28.4251
lradius 96.3108
lwrist 43.6443
lhand -30.3066 8.48684
lfingers 7.12502
lthumb -3.61352 38.436
rfemur -1.32072 18.0735 16.8402
rtibia 21.5979
rfoot -10.6602 2.03385
rtoes -6.14599
lfemur 12.4253 12.4478 -24.9649
ltibia 12.4796
lfoot -26.9264 35.2992
ltoes 13.531
1915
root 10.5652 17.7127 0.295921 -7.77732 -42.0987 1.34383
lowerback 0.372811 -9.41828 -9.92639
upperback -3.47101 -12.7627 1.44183
thorax -1.39716 -6.18372 6.83993
lowerneck -10.8586 -13.3003 -9.30611
upperneck 8.388 -17.9797 11.108
head 6.15618 -8.43562 3.1656
rclavicle -9.91935e-014 -1.19271e-014
rhumerus 48.089 2.86934 -63.5435
rradius 32.706
rwrist -50.6642
rhand -30.8236 2.12726
rfingers 7.12502
rthumb -4.11279 -27.8128
lclavicle -9.91935e-014 -1.19271e-014
lhumerus 76.7345 -57.8467 28.2568
lradius 97.8375
lwrist 44.1455
lhand -30.3125 8.73364
lfingers 7.12502
lthumb -3.61928 38.6827
rfemur -1.40335 18.0937 16.8976
rtibia 21.7943
rfoot -10.8682 1.98125
rtoes -6.25346
lfemur 12.6224 12.283 -24.9449
ltibia 12.1244
lfoot -27.5 35.0695
ltoes 14.7187
